/* XPM */
static char *_632383195638[] = {
/* columns rows colors chars-per-pixel */
"32 32 2 1 ",
"  c #765A85",
". c #98F7A7",
/* pixels */
"                                ",
"                                ",
".....                           ",
".                     .....     ",
".                    ..    ..   ",
".                   .       .   ",
"..                 ..        .  ",
" ..                .         .  ",
"  ....                       .  ",
"      ....                   .  ",
"                           ...  ",
"                   ........     ",
"                                ",
"                                ",
"                                ",
"                                ",
"                                ",
"       ..                       ",
"         ..                     ",
"           ..                   ",
"             ..                 ",
"               .           .    ",
"         ..    ..        ..     ",
"        ..      .        .      ",
"       .        .        .      ",
"       .       ..        .....  ",
"        .......                 ",
"                                ",
"                                ",
"                                ",
"                                ",
"                                "
};
