/* XPM */
static char *_632382311188[] = {
/* columns rows colors chars-per-pixel */
"32 32 3 1 ",
"  c black",
". c #B76506",
"X c None",
/* pixels */
"    XXXXXXXXXXXXXXXXXXXXXXXXXXXX",
"    XXXXXXXXXXXXXXXXXXXXXXXXXXXX",
"    ....XXXXXXXXXXXXXXXXXXXXXXXX",
"    ....XXXXXXXXXXXXXXXXXXXXXXXX",
"    ........XXXXXXXXXXXXXXXXXXXX",
"    ........XXXXXXXXXXXXXXXXXXXX",
"    ............XXXXXXXXXXXXXXXX",
"    ............XXXXXXXXXXXXXXXX",
"    ................XXXXXXXXXXXX",
"    ................XXXXXXXXXXXX",
"    ....................XXXXXXXX",
"    ....................XXXXXXXX",
"    ........................XXXX",
"    ........................XXXX",
"    ............................",
"    ............................",
"    ............................",
"    ............................",
"    XXXXXXXXXXXXXXXXXXXXXXXXXXXX",
"    XXXXXXXXXXXXXXXXXXXXXXXXXXXX",
"    XXXXXXXXXXXXXXXXXXXXXXXXXXXX",
"    XXXXXXXXXXXXXXXXXXXXXXXXXXXX",
"    XXXXXXXXXXXXXXXXXXXXXXXXXXXX",
"    XXXXXXXXXXXXXXXXXXXXXXXXXXXX",
"    XXXXXXXXXXXXXXXXXXXXXXXXXXXX",
"    XXXXXXXXXXXXXXXXXXXXXXXXXXXX",
"    XXXXXXXXXXXXXXXXXXXXXXXXXXXX",
"    XXXXXXXXXXXXXXXXXXXXXXXXXXXX",
"    XXXXXXXXXXXXXXXXXXXXXXXXXXXX",
"    XXXXXXXXXXXXXXXXXXXXXXXXXXXX",
"XXXXXXXXXXXXXXXXXXXXXXXXXXXXXXXX",
"XXXXXXXXXXXXXXXXXXXXXXXXXXXXXXXX"
};
