/* XPM */
static char *a5b059358bf34dfeeddbf6b00294e398b3JVqQqW0QTPLsGn[] = {
/* columns rows colors chars-per-pixel */
"32 32 3 1 ",
"  c None",
". c black",
"X c #B70000",
/* pixels */
"....                            ",
"....                            ",
"....XXXX                        ",
"....XXXX                        ",
"....XXXXXXXX                    ",
"....XXXXXXXX                    ",
"....XXXXXXXXXXXX                ",
"....XXXXXXXXXXXX                ",
"....XXXXXXXXXXXXXXXX            ",
"....XXXXXXXXXXXXXXXX            ",
"....XXXXXXXXXXXXXXXXXXXX        ",
"....XXXXXXXXXXXXXXXXXXXX        ",
"....XXXXXXXXXXXXXXXXXXXXXXXX    ",
"....XXXXXXXXXXXXXXXXXXXXXXXX    ",
"....XXXXXXXXXXXXXXXXXXXXXXXXXXXX",
"....XXXXXXXXXXXXXXXXXXXXXXXXXXXX",
"....XXXXXXXXXXXXXXXXXXXXXXXXXXXX",
"....XXXXXXXXXXXXXXXXXXXXXXXXXXXX",
"....                            ",
"....                            ",
"....                            ",
"....                            ",
"....                            ",
"....                            ",
"....                            ",
"....                            ",
"....                            ",
"....                            ",
"....                            ",
"....                            ",
"                                ",
"                                "
};
