/* XPM */
static char *f4fbb232df6c4102c84e11b7bb6bc4e5OpylddNn122hV8io[] = {
/* columns rows colors chars-per-pixel */
"32 32 3 1 ",
"  c None",
". c black",
"X c #057E00",
/* pixels */
"....                            ",
"....                            ",
"....XXXX                        ",
"....XXXX                        ",
"....XXXXXXXX                    ",
"....XXXXXXXX                    ",
"....XXXXXXXXXXXX                ",
"....XXXXXXXXXXXX                ",
"....XXXXXXXXXXXXXXXX            ",
"....XXXXXXXXXXXXXXXX            ",
"....XXXXXXXXXXXXXXXXXXXX        ",
"....XXXXXXXXXXXXXXXXXXXX        ",
"....XXXXXXXXXXXXXXXXXXXXXXXX    ",
"....XXXXXXXXXXXXXXXXXXXXXXXX    ",
"....XXXXXXXXXXXXXXXXXXXXXXXXXXXX",
"....XXXXXXXXXXXXXXXXXXXXXXXXXXXX",
"....XXXXXXXXXXXXXXXXXXXXXXXXXXXX",
"....XXXXXXXXXXXXXXXXXXXXXXXXXXXX",
"....                            ",
"....                            ",
"....                            ",
"....                            ",
"....                            ",
"....                            ",
"....                            ",
"....                            ",
"....                            ",
"....                            ",
"....                            ",
"....                            ",
"                                ",
"                                "
};
