/* XPM */
static char *_1d7a34d5aa34a15ff961ef88fc2a594G2MMjAdvi5ei4W3o[] = {
/* columns rows colors chars-per-pixel */
"32 32 6 1 ",
"  c None",
". c #003E44",
"X c #01820C",
"o c #007886",
"O c gray56",
"+ c #9A9A9A",
/* pixels */
"                                ",
"    ooooooooooooooooooooooooo   ",
"    oOOOOO   OOOO++    OOOO+o   ",
"    o...OO...++++++....OO...o   ",
"    o...OO...++++++....OO...o   ",
"    oOOOOO.....++......OOOO+o   ",
"    oOOOOO.....++......OOOO+o   ",
"    o.....OO...++....++OO...o   ",
"    o.....OO...++....++OO...o   ",
"    oOOO..OO...++....++OOOO+o   ",
"    oOOO..OO...++....++OOOO+o   ",
"    o.......+..++..++++OO...o   ",
"    o.......+..++..++++OO...o   ",
"    oOOO....+++++++++++OOOO+o   ",
"    oOOO....+++++++++++OOOO+o   ",
"    o.......OOOXXOOOO++OO...o   ",
"    o.......OOOXXOOOO++OO...o   ",
"    oOOO....O++++XXOO++OOOO+o   ",
"    oOOO....O++++XXOO++OOOO+o   ",
"    o.......O++XXXXOO++OO...o   ",
"    o.......O++XXXXOO++OO...o   ",
"    oOOO....OOOOOOOOO++OOOO+o   ",
"    oOOO....OOOOOOOOO++OOOO+o   ",
"    o.......OOOOOOOOO++OO...o   ",
"    o.......OOOOOOOOO++OO...o   ",
"    oOOO..OO+++++++++OOOOOO+o   ",
"    oOOO..OO+++++++++OOOOOO+o   ",
"    o...OO+++++++++++++OO...o   ",
"    o...OO+++++++++++++OO...o   ",
"    oOOO++     OO      OOOO+o   ",
"    ooooooooooooooooooooooooo   ",
"                                "
};
