/* XPM */
static char *_632382327428[] = {
/* columns rows colors chars-per-pixel */
"32 32 4 1 ",
"  c #007886",
". c #C0C0C0",
"X c white",
"o c None",
/* pixels */
"oooooooooooooooooooooooooooooooo",
"oooo......ooo....XXoooo....XXooo",
"oooo......ooo....XXoooo....XXooo",
"oooo    ..   XXXXXX    ..    ooo",
"oooo    ..   XXXXXX    ..    ooo",
"oooo......     XX      ....XXooo",
"oooo......     XX      ....XXooo",
"oooo      ..   XX    XX..    ooo",
"oooo      ..   XX    XX..    ooo",
"oooo....  ..   XX    XX....XXooo",
"oooo....  ..   XX    XX....XXooo",
"oooo        X  XX  XXXX..    ooo",
"oooo        X  XX  XXXX..    ooo",
"oooo....    XXXXXXXXXXX....XXooo",
"oooo....    XXXXXXXXXXX....XXooo",
"oooo        ...  ....XX..    ooo",
"oooo        ...  ....XX..    ooo",
"oooo....    .XXXX  ..XX....XXooo",
"oooo....    .XXXX  ..XX....XXooo",
"oooo        .XX    ..XX..    ooo",
"oooo        .XX    ..XX..    ooo",
"oooo....    .........XX....XXooo",
"oooo....    .........XX....XXooo",
"oooo        .........XX..    ooo",
"oooo        .........XX..    ooo",
"oooo....  ..XXXXXXXXX......XXooo",
"oooo....  ..XXXXXXXXX......XXooo",
"oooo    ..XXXXXXXXXXXXX..    ooo",
"oooo    ..XXXXXXXXXXXXX..    ooo",
"oooo....XXooooo..oooooo....XXooo",
"oooo....XXooooo..oooooo....XXooo",
"oooooooooooooooooooooooooooooooo"
};
