/* XPM */
static char *_632382181125[] = {
/* columns rows colors chars-per-pixel */
"32 32 3 1 ",
"  c #BB1C0E",
". c #808080",
"X c None",
/* pixels */
"XXXXXXXXXXXXXXXXXXXXXXXXXXXXXXXX",
"XXXXXXXXXXXXXXXXXXXXXXXXXXXXXXXX",
"....XXXXXXXXXXXXXXXXXXXXXXXX....",
"....XXXXXXXXXXXXXXXXXXXXXXXX....",
"XX....XXXXXX......XXXXXXXX....XX",
"XX....XXXXXX......XXXXXXXX....XX",
"........XXXXXX..  ..XXXX........",
"........XXXXXX..  ..XXXX........",
"XX......XXXXXX....XXXXXX......XX",
"XX......XXXXXX....XXXXXX......XX",
"............XX....XX............",
"............XX....XX............",
"XXXX..  ................  ..XXXX",
"XXXX..  ................  ..XXXX",
"XX......  ............  ......XX",
"XX......  ............  ......XX",
"XXXX........  ....  ........XXXX",
"XXXX........  ....  ........XXXX",
"XXXX........................XXXX",
"XXXX........................XXXX",
"XXXXXX......XX....XX......XXXXXX",
"XXXXXX......XX....XX......XXXXXX",
"XXXXXXXXXXXXXX....XXXXXXXXXXXXXX",
"XXXXXXXXXXXXXX....XXXXXXXXXXXXXX",
"XXXXXXXXXXXX........XXXXXXXXXXXX",
"XXXXXXXXXXXX........XXXXXXXXXXXX",
"XXXXXXXX................XXXXXXXX",
"XXXXXXXX................XXXXXXXX",
"XXXXXXXX....XX....XX....XXXXXXXX",
"XXXXXXXX....XX....XX....XXXXXXXX",
"XXXXXXXXXXXXXXXXXXXXXXXXXXXXXXXX",
"XXXXXXXXXXXXXXXXXXXXXXXXXXXXXXXX"
};
