/* XPM */
static char *_632382340895[] = {
/* columns rows colors chars-per-pixel */
"32 32 4 1 ",
"  c #0E7E00",
". c #008C45",
"X c #7EEE49",
"o c None",
/* pixels */
"oo......  ..XXoooo......  ..XXoo",
"oo......  ..XXoooo......  ..XXoo",
"....  XX..XX..XX....  XX..XX..XX",
"....  XX..XX..XX....  XX..XX..XX",
"..........XXXXXX..........XXXXXX",
"..........XXXXXX..........XXXXXX",
"  ....XXXX  ..XX  ....XXXX  ..XX",
"  ....XXXX  ..XX  ....XXXX  ..XX",
"....XX  XXXXXX  ....XX  XXXXXX  ",
"....XX  XXXXXX  ....XX  XXXXXX  ",
"..  ..XXXXXXXXXX..  ..XXXXXXXXXX",
"..  ..XXXXXXXXXX..  ..XXXXXXXXXX",
"XXXXXXXXXX  XXXXXXXXXXXXXX  XXXX",
"XXXXXXXXXX  XXXXXXXXXXXXXX  XXXX",
"ooXXXX  XXXXXXooooXXXX  XXXXXXoo",
"ooXXXX  XXXXXXooooXXXX  XXXXXXoo",
"oo......  ..XXoooo......  ..XXoo",
"oo......  ..XXoooo......  ..XXoo",
"....  XX..XX..XX....  XX..XX..XX",
"....  XX..XX..XX....  XX..XX..XX",
"..........XXXXXX..........XXXXXX",
"..........XXXXXX..........XXXXXX",
"  ....XXXX  ..XX  ....XXXX  ..XX",
"  ....XXXX  ..XX  ....XXXX  ..XX",
"....XX  XXXXXX  ....XX  XXXXXX  ",
"....XX  XXXXXX  ....XX  XXXXXX  ",
"..  ..XXXXXXXXXX..  ..XXXXXXXXXX",
"..  ..XXXXXXXXXX..  ..XXXXXXXXXX",
"XXXXXXXXXX  XXXXXXXXXXXXXX  XXXX",
"XXXXXXXXXX  XXXXXXXXXXXXXX  XXXX",
"ooXXXX  XXXXXXooooXXXX  XXXXXXoo",
"ooXXXX  XXXXXXooooXXXX  XXXXXXoo"
};
